<?xml version="1.0" encoding="UTF-8"?><svg id="a" xmlns="http://www.w3.org/2000/svg" viewBox="0 0 144.05 154"><path d="M25.35,2H2v96.7c0,12.54,10.33,35.26,23.35,35.26V2Z" style="fill:#fff200; stroke:#000; stroke-miterlimit:10; stroke-width:4px;"/><path d="M96.83,99.94h-11.18v25.62c0,23.35-45.71,18.51-45.71,0V2h56.9c60.29,0,60.29,97.94,0,97.94Z" style="fill:#fff200; stroke:#000; stroke-miterlimit:10; stroke-width:4px;"/><path d="M127.44,62.77h-16.52v34.77c0,9.18-2.27,17.83-6.28,25.41-9.13,17.28-27.28,29.05-48.18,29.05-30.08,0-54.46-24.38-54.46-54.46,0,15.04,12.19,27.23,27.23,27.23s27.23-12.19,27.23-27.23v-34.77h-16.53l21.73-19.44,22.02-19.7,43.76,39.14Z" style="fill:#fff; stroke:#000; stroke-linecap:round; stroke-linejoin:round; stroke-width:4px;"/></svg>