<?xml version="1.0" encoding="UTF-8"?><svg id="a" xmlns="http://www.w3.org/2000/svg" viewBox="0 0 455.56 484.5"><path d="M94.55,6.92H7.78v303.5c0,39.35,45.93,116.06,86.77,116.06V6.92Z" style="fill:#1a1a1a; stroke:#fff; stroke-miterlimit:10; stroke-width:10.69px;"/><path d="M305.4,314.31h-35.1v80.41c0,73.28-143.47,58.08-143.47,0V6.92h178.57c189.23,0,189.23,307.38,0,307.38Z" style="fill:#1a1a1a; stroke:#fff; stroke-miterlimit:10; stroke-width:10.69px;"/><path d="M401.49,197.64h-51.86v109.13c0,28.8-7.13,55.95-19.71,79.75-28.66,54.22-85.63,91.17-151.21,91.17-94.4,0-170.92-76.52-170.92-170.92,0,47.19,38.26,85.46,85.47,85.46s85.46-38.26,85.46-85.46v-109.13h-51.87l68.21-61.01,69.12-61.82,137.33,122.83Z" style="fill:#666; stroke:#fff; stroke-linecap:round; stroke-linejoin:round; stroke-width:10.69px;"/></svg>